<svg width="237" height="81" viewBox="0 0 237 81" fill="none" xmlns="http://www.w3.org/2000/svg">
<path d="M160.848 71.192C157.904 71.192 155.568 70.056 153.84 67.784C152.112 65.512 151.248 62.472 151.248 58.664C151.248 54.856 152.304 51.88 154.416 49.736C156.528 47.592 159.424 46.52 163.104 46.52C166.784 46.52 169.872 47.368 172.368 49.064V79.64C172.368 80.056 170.992 80.264 168.24 80.264C165.488 80.264 164.112 80.056 164.112 79.64V70.808C162.832 71.064 161.744 71.192 160.848 71.192ZM160.944 54.968C160.208 55.608 159.84 57 159.84 59.144C159.84 61.256 160.272 62.6 161.136 63.176C161.616 63.496 162.112 63.656 162.624 63.656C163.136 63.656 163.632 63.576 164.112 63.416V54.488C163.632 54.36 163.104 54.296 162.528 54.296C161.952 54.296 161.424 54.52 160.944 54.968ZM176.436 47.288C176.436 46.936 177.812 46.76 180.564 46.76C183.316 46.76 184.692 46.936 184.692 47.288V61.304C184.692 62.904 185.204 63.704 186.228 63.704C186.996 63.704 187.86 63.368 188.82 62.696V47.288C188.82 46.968 190.18 46.808 192.9 46.808C195.62 46.808 196.98 46.968 196.98 47.288V63.032H198.228C199.316 63.032 199.86 64.072 199.86 66.152C199.86 67.208 199.636 68.28 199.188 69.368C198.548 70.776 197.684 71.48 196.596 71.48C194.452 71.48 192.868 70.6 191.844 68.84L191.796 68.888C189.844 70.616 187.748 71.48 185.508 71.48C182.404 71.48 180.116 70.712 178.644 69.176C177.172 67.608 176.436 65.032 176.436 61.448V47.288ZM211.569 70.712C211.569 70.968 210.097 71.096 207.153 71.096C204.241 71.096 202.785 70.984 202.785 70.76V47.192C202.785 46.968 204.241 46.856 207.153 46.856C210.097 46.856 211.569 46.952 211.569 47.144V70.712ZM211.569 44.312C211.569 44.536 210.097 44.648 207.153 44.648C204.241 44.648 202.785 44.552 202.785 44.36V37.448C202.785 37.128 204.241 36.968 207.153 36.968C210.097 36.968 211.569 37.064 211.569 37.256V44.312ZM215.814 54.68C215.59 54.68 215.478 53.992 215.478 52.616C215.478 48.872 215.782 47 216.39 47H231.702C231.926 47 232.422 47.704 233.19 49.112C233.958 50.52 234.342 51.32 234.342 51.512C234.342 51.672 234.326 51.768 234.294 51.8L224.982 63.512L233.334 62.936C233.846 62.936 234.102 64.072 234.102 66.344C234.102 67.208 234.022 68.2 233.862 69.32C233.702 70.44 233.43 71 233.046 71H217.686C217.206 71 216.63 70.2 215.958 68.6C215.286 67 214.95 66.04 214.95 65.72C214.95 65.368 214.982 65.16 215.046 65.096L224.214 54.392L215.814 54.68Z" fill="white"/>
<path d="M7.704 37V3.4H21.72C23.864 3.4 25.672 3.72 27.144 4.36C28.616 5 29.72 5.96 30.456 7.24C31.224 8.488 31.608 10.024 31.608 11.848C31.608 13.672 31.096 15.224 30.072 16.504C29.08 17.784 27.688 18.664 25.896 19.144V18.184C27.4 18.504 28.712 19.08 29.832 19.912C30.952 20.712 31.816 21.72 32.424 22.936C33.064 24.152 33.384 25.544 33.384 27.112C33.384 28.712 33.128 30.136 32.616 31.384C32.136 32.6 31.4 33.624 30.408 34.456C29.448 35.288 28.28 35.928 26.904 36.376C25.528 36.792 23.96 37 22.2 37H7.704ZM12.888 32.008H21.912C23.224 32.008 24.328 31.816 25.224 31.432C26.152 31.048 26.856 30.488 27.336 29.752C27.848 28.984 28.104 28.072 28.104 27.016C28.104 26.024 27.832 25.176 27.288 24.472C26.776 23.768 26.04 23.24 25.08 22.888C24.12 22.504 22.984 22.312 21.672 22.312H12.888V32.008ZM12.888 17.32H21.432C22.392 17.32 23.24 17.128 23.976 16.744C24.744 16.36 25.336 15.832 25.752 15.16C26.2 14.488 26.424 13.72 26.424 12.856C26.424 11.416 25.944 10.312 24.984 9.544C24.024 8.776 22.648 8.392 20.856 8.392H12.888V17.32ZM39.1279 37V11.8H44.1199V19.72L43.6399 17.8C43.9919 16.584 44.5839 15.48 45.4159 14.488C46.2799 13.496 47.2559 12.712 48.3439 12.136C49.4639 11.56 50.6159 11.272 51.7999 11.272C52.3439 11.272 52.8559 11.32 53.3359 11.416C53.8479 11.512 54.2479 11.624 54.5359 11.752L53.2399 17.128C52.8559 16.968 52.4239 16.84 51.9439 16.744C51.4959 16.616 51.0479 16.552 50.5999 16.552C49.7359 16.552 48.9039 16.728 48.1039 17.08C47.3359 17.4 46.6479 17.864 46.0399 18.472C45.4639 19.048 44.9999 19.736 44.6479 20.536C44.2959 21.304 44.1199 22.152 44.1199 23.08V37H39.1279ZM67.1051 37.48C65.0251 37.48 63.1211 36.904 61.3931 35.752C59.6971 34.6 58.3371 33.032 57.3131 31.048C56.2891 29.064 55.7771 26.824 55.7771 24.328C55.7771 21.8 56.2891 19.56 57.3131 17.608C58.3691 15.624 59.7771 14.072 61.5371 12.952C63.3291 11.832 65.3291 11.272 67.5371 11.272C68.8491 11.272 70.0491 11.464 71.1371 11.848C72.2251 12.232 73.1691 12.776 73.9691 13.48C74.8011 14.152 75.4731 14.936 75.9851 15.832C76.5291 16.728 76.8651 17.688 76.9931 18.712L75.8891 18.328V11.8H80.8811V37H75.8891V31L77.0411 30.664C76.8491 31.528 76.4491 32.376 75.8411 33.208C75.2651 34.008 74.5131 34.728 73.5851 35.368C72.6891 36.008 71.6811 36.52 70.5611 36.904C69.4731 37.288 68.3211 37.48 67.1051 37.48ZM68.4011 32.92C69.9051 32.92 71.2331 32.552 72.3851 31.816C73.5371 31.08 74.4331 30.072 75.0731 28.792C75.7451 27.48 76.0811 25.992 76.0811 24.328C76.0811 22.696 75.7451 21.24 75.0731 19.96C74.4331 18.68 73.5371 17.672 72.3851 16.936C71.2331 16.2 69.9051 15.832 68.4011 15.832C66.9291 15.832 65.6171 16.2 64.4651 16.936C63.3451 17.672 62.4491 18.68 61.7771 19.96C61.1371 21.24 60.8171 22.696 60.8171 24.328C60.8171 25.992 61.1371 27.48 61.7771 28.792C62.4491 30.072 63.3451 31.08 64.4651 31.816C65.6171 32.552 66.9291 32.92 68.4011 32.92ZM96.1841 37.48C94.0721 37.48 92.1681 37.112 90.4721 36.376C88.7761 35.64 87.3681 34.552 86.2481 33.112L89.6081 30.232C90.5681 31.352 91.6081 32.168 92.7281 32.68C93.8801 33.16 95.1761 33.4 96.6161 33.4C97.1921 33.4 97.7201 33.336 98.2001 33.208C98.7121 33.048 99.1441 32.824 99.4961 32.536C99.8801 32.248 100.168 31.912 100.36 31.528C100.552 31.112 100.648 30.664 100.648 30.184C100.648 29.352 100.344 28.68 99.7361 28.168C99.4161 27.944 98.9041 27.704 98.2001 27.448C97.5281 27.16 96.6481 26.872 95.5601 26.584C93.7041 26.104 92.1841 25.56 91.0001 24.952C89.8161 24.344 88.9041 23.656 88.2641 22.888C87.7841 22.28 87.4321 21.624 87.2081 20.92C86.9841 20.184 86.8721 19.384 86.8721 18.52C86.8721 17.464 87.0961 16.504 87.5441 15.64C88.0241 14.744 88.6641 13.976 89.4641 13.336C90.2961 12.664 91.2561 12.152 92.3441 11.8C93.4641 11.448 94.6481 11.272 95.8961 11.272C97.0801 11.272 98.2481 11.432 99.4001 11.752C100.584 12.072 101.672 12.536 102.664 13.144C103.656 13.752 104.488 14.472 105.16 15.304L102.328 18.424C101.72 17.816 101.048 17.288 100.312 16.84C99.6081 16.36 98.8881 15.992 98.1521 15.736C97.4161 15.48 96.7441 15.352 96.1361 15.352C95.4641 15.352 94.8561 15.416 94.3121 15.544C93.7681 15.672 93.3041 15.864 92.9201 16.12C92.5681 16.376 92.2961 16.696 92.1041 17.08C91.9121 17.464 91.8161 17.896 91.8161 18.376C91.8481 18.792 91.9441 19.192 92.1041 19.576C92.2961 19.928 92.5521 20.232 92.8721 20.488C93.2241 20.744 93.7521 21.016 94.4561 21.304C95.1601 21.592 96.0561 21.864 97.1441 22.12C98.7441 22.536 100.056 23 101.08 23.512C102.136 23.992 102.968 24.552 103.576 25.192C104.216 25.8 104.664 26.504 104.92 27.304C105.176 28.104 105.304 29 105.304 29.992C105.304 31.432 104.888 32.728 104.056 33.88C103.256 35 102.168 35.88 100.792 36.52C99.4161 37.16 97.8801 37.48 96.1841 37.48ZM111.569 37V11.8H116.513V37H111.569ZM113.969 6.232C112.913 6.232 112.097 5.96 111.521 5.416C110.945 4.872 110.657 4.104 110.657 3.112C110.657 2.184 110.945 1.432 111.521 0.855999C112.129 0.279999 112.945 -0.00800133 113.969 -0.00800133C115.025 -0.00800133 115.841 0.263999 116.417 0.808C116.993 1.352 117.281 2.12 117.281 3.112C117.281 4.04 116.977 4.792 116.369 5.368C115.793 5.944 114.993 6.232 113.969 6.232ZM124.208 37V1.48H129.152V37H124.208ZM136.975 37V11.8H141.919V37H136.975ZM139.375 6.232C138.319 6.232 137.503 5.96 136.927 5.416C136.351 4.872 136.063 4.104 136.063 3.112C136.063 2.184 136.351 1.432 136.927 0.855999C137.535 0.279999 138.351 -0.00800133 139.375 -0.00800133C140.431 -0.00800133 141.247 0.263999 141.823 0.808C142.399 1.352 142.687 2.12 142.687 3.112C142.687 4.04 142.383 4.792 141.775 5.368C141.199 5.944 140.399 6.232 139.375 6.232ZM159.215 37.48C157.135 37.48 155.231 36.904 153.503 35.752C151.807 34.6 150.447 33.032 149.423 31.048C148.399 29.064 147.887 26.824 147.887 24.328C147.887 21.8 148.399 19.56 149.423 17.608C150.479 15.624 151.887 14.072 153.647 12.952C155.439 11.832 157.439 11.272 159.647 11.272C160.959 11.272 162.159 11.464 163.247 11.848C164.335 12.232 165.279 12.776 166.079 13.48C166.911 14.152 167.583 14.936 168.095 15.832C168.639 16.728 168.975 17.688 169.103 18.712L167.999 18.328V11.8H172.991V37H167.999V31L169.151 30.664C168.959 31.528 168.559 32.376 167.951 33.208C167.375 34.008 166.623 34.728 165.695 35.368C164.799 36.008 163.791 36.52 162.671 36.904C161.583 37.288 160.431 37.48 159.215 37.48ZM160.511 32.92C162.015 32.92 163.343 32.552 164.495 31.816C165.647 31.08 166.543 30.072 167.183 28.792C167.855 27.48 168.191 25.992 168.191 24.328C168.191 22.696 167.855 21.24 167.183 19.96C166.543 18.68 165.647 17.672 164.495 16.936C163.343 16.2 162.015 15.832 160.511 15.832C159.039 15.832 157.727 16.2 156.575 16.936C155.455 17.672 154.559 18.68 153.887 19.96C153.247 21.24 152.927 22.696 152.927 24.328C152.927 25.992 153.247 27.48 153.887 28.792C154.559 30.072 155.455 31.08 156.575 31.816C157.727 32.552 159.039 32.92 160.511 32.92ZM179.894 37V11.8H184.838V16.984L183.974 17.56C184.294 16.44 184.918 15.416 185.846 14.488C186.774 13.528 187.878 12.76 189.158 12.184C190.438 11.576 191.75 11.272 193.094 11.272C195.014 11.272 196.614 11.656 197.894 12.424C199.174 13.16 200.134 14.296 200.774 15.832C201.414 17.368 201.734 19.304 201.734 21.64V37H196.79V21.976C196.79 20.536 196.598 19.352 196.214 18.424C195.83 17.464 195.238 16.776 194.438 16.36C193.638 15.912 192.646 15.72 191.462 15.784C190.502 15.784 189.622 15.944 188.822 16.264C188.022 16.552 187.318 16.968 186.71 17.512C186.134 18.056 185.67 18.696 185.318 19.432C184.998 20.136 184.838 20.904 184.838 21.736V37H182.39C181.974 37 181.558 37 181.142 37C180.726 37 180.31 37 179.894 37ZM219.768 37.48C217.304 37.48 215.096 36.92 213.144 35.8C211.224 34.648 209.704 33.096 208.584 31.144C207.464 29.16 206.904 26.904 206.904 24.376C206.904 21.848 207.464 19.608 208.584 17.656C209.704 15.672 211.224 14.12 213.144 13C215.096 11.848 217.304 11.272 219.768 11.272C222.2 11.272 224.376 11.848 226.296 13C228.248 14.12 229.784 15.672 230.904 17.656C232.024 19.608 232.584 21.848 232.584 24.376C232.584 26.904 232.024 29.16 230.904 31.144C229.784 33.096 228.248 34.648 226.296 35.8C224.376 36.92 222.2 37.48 219.768 37.48ZM219.768 32.968C221.272 32.968 222.616 32.6 223.8 31.864C224.984 31.096 225.912 30.072 226.584 28.792C227.256 27.48 227.576 26.008 227.544 24.376C227.576 22.712 227.256 21.24 226.584 19.96C225.912 18.648 224.984 17.624 223.8 16.888C222.616 16.152 221.272 15.784 219.768 15.784C218.264 15.784 216.904 16.168 215.688 16.936C214.504 17.672 213.576 18.696 212.904 20.008C212.232 21.288 211.912 22.744 211.944 24.376C211.912 26.008 212.232 27.48 212.904 28.792C213.576 30.072 214.504 31.096 215.688 31.864C216.904 32.6 218.264 32.968 219.768 32.968Z" fill="white"/>
<path d="M19.9695 43.6922C19.149 41.5521 16.1213 41.5521 15.3008 43.6922L13.7012 47.8647C13.4788 48.4448 12.9219 48.8277 12.3006 48.8277H7.92543C5.40499 48.8277 4.4684 52.1349 6.61458 53.4565L9.55397 55.2665C10.1684 55.6448 10.4263 56.407 10.1681 57.0807L8.91765 60.3423C8.06183 62.5747 10.527 64.6196 12.5628 63.366L16.8486 60.727C17.3309 60.43 17.9394 60.43 18.4216 60.727L22.7074 63.366C24.7432 64.6196 27.2084 62.5747 26.3526 60.3423L25.1022 57.0807C24.8439 56.407 25.1019 55.6448 25.7163 55.2665L28.6557 53.4565C30.8019 52.1349 29.8653 48.8277 27.3448 48.8277H22.9697C22.3484 48.8277 21.7915 48.4448 21.5691 47.8647L19.9695 43.6922Z" fill="#FFDD00" stroke="black"/>
<path d="M49.2397 43.6922C48.4193 41.5521 45.3915 41.5521 44.5711 43.6922L42.9715 47.8647C42.7491 48.4448 42.1921 48.8277 41.5709 48.8277H37.1957C34.6753 48.8277 33.7387 52.1349 35.8848 53.4565L38.8242 55.2665C39.4386 55.6448 39.6966 56.407 39.4383 57.0807L38.1879 60.3423C37.3321 62.5747 39.7973 64.6196 41.8331 63.366L46.1189 60.727C46.6012 60.43 47.2096 60.43 47.6919 60.727L51.9777 63.366C54.0135 64.6196 56.4787 62.5747 55.6229 60.3423L54.3725 57.0807C54.1142 56.407 54.3722 55.6448 54.9866 55.2665L57.9259 53.4565C60.0721 52.1349 59.1356 48.8277 56.6151 48.8277H52.2399C51.6187 48.8277 51.0617 48.4448 50.8393 47.8647L49.2397 43.6922Z" fill="#FFDD00" stroke="black"/>
<path d="M78.51 44.5226C77.6895 42.3825 74.6618 42.3825 73.8413 44.5226L72.2417 48.6951C72.0193 49.2751 71.4624 49.6581 70.8411 49.6581H66.466C63.9455 49.6581 63.0089 52.9653 65.1551 54.2869L68.0945 56.0969C68.7089 56.4752 68.9669 57.2374 68.7086 57.9111L67.4582 61.1727C66.6024 63.4051 69.0676 65.45 71.1034 64.1964L75.3892 61.5573C75.8714 61.2604 76.4799 61.2604 76.9622 61.5573L81.248 64.1964C83.2838 65.45 85.749 63.4051 84.8931 61.1727L83.6427 57.9111C83.3845 57.2374 83.6424 56.4752 84.2568 56.0969L87.1962 54.2869C89.3424 52.9653 88.4058 49.6581 85.8854 49.6581H81.5102C80.8889 49.6581 80.332 49.2751 80.1096 48.6951L78.51 44.5226Z" fill="#FFDD00" stroke="black"/>
<path d="M107.78 44.5226C106.96 42.3825 103.932 42.3825 103.112 44.5226L101.512 48.6951C101.29 49.2751 100.733 49.6581 100.111 49.6581H95.7362C93.2158 49.6581 92.2792 52.9653 94.4254 54.2869L97.3648 56.0969C97.9792 56.4752 98.2371 57.2374 97.9789 57.9111L96.7284 61.1727C95.8726 63.4051 98.3378 65.45 100.374 64.1964L104.659 61.5573C105.142 61.2604 105.75 61.2604 106.232 61.5573L110.518 64.1964C112.554 65.45 115.019 63.4051 114.163 61.1727L112.913 57.9111C112.655 57.2374 112.913 56.4752 113.527 56.0969L116.466 54.2869C118.613 52.9653 117.676 49.6581 115.156 49.6581H110.78C110.159 49.6581 109.602 49.2751 109.38 48.6951L107.78 44.5226Z" fill="#FFDD00" stroke="black"/>
<path d="M137.051 44.5226C136.23 42.3825 133.202 42.3825 132.382 44.5226L130.782 48.6951C130.56 49.2751 130.003 49.6581 129.382 49.6581H125.006C122.486 49.6581 121.549 52.9653 123.696 54.2869L126.635 56.0969C127.249 56.4752 127.507 57.2374 127.249 57.9111L125.999 61.1727C125.143 63.4051 127.608 65.45 129.644 64.1964L133.93 61.5573C134.412 61.2604 135.02 61.2604 135.503 61.5573L139.788 64.1964C141.824 65.45 144.29 63.4051 143.434 61.1727L142.183 57.9111C141.925 57.2374 142.183 56.4752 142.797 56.0969L145.737 54.2869C147.883 52.9653 146.946 49.6581 144.426 49.6581H140.051C139.429 49.6581 138.873 49.2751 138.65 48.6951L137.051 44.5226Z" fill="#FFDD00" stroke="black"/>
</svg>
